<svg width="20" height="25" viewBox="0 0 20 25" fill="none" xmlns="http://www.w3.org/2000/svg">
<path d="M13.2668 3.94431C14.0815 2.89693 14.6633 1.50042 14.4888 0.103912C13.2668 0.1621 11.8121 0.918542 10.9393 1.90774C10.1829 2.78055 9.48461 4.23525 9.65918 5.57357C11.0557 5.74813 12.394 4.99169 13.2668 3.94431ZM14.4888 5.9227C12.5104 5.80632 10.8229 7.02827 9.89193 7.02827C8.96092 7.02827 7.50623 5.98089 5.93515 5.98089C3.89858 6.03907 2.03657 7.14464 0.989184 9.00665C-1.10558 12.6725 0.407305 18.084 2.50207 21.0515C3.49126 22.5062 4.71321 24.1355 6.28428 24.0773C7.79716 24.0191 8.37904 23.0881 10.1829 23.0881C11.9867 23.0881 12.5104 24.0773 14.1396 24.0191C15.7689 23.9609 16.8163 22.5644 17.8055 21.0515C18.9692 19.3641 19.4347 17.7348 19.4347 17.6766C19.3766 17.6185 16.2344 16.4547 16.2344 12.8471C16.1762 9.82129 18.6783 8.36659 18.7947 8.3084C17.4564 6.21364 15.2452 5.98089 14.4888 5.9227Z" fill="black"/>
</svg>
