<svg width="36" height="36" viewBox="0 0 36 36" fill="none" xmlns="http://www.w3.org/2000/svg">
<path d="M26.3257 0H9.67427C4.33132 0 0 4.33132 0 9.67427V26.3257C0 31.6687 4.33132 36 9.67427 36H26.3257C31.6687 36 36 31.6687 36 26.3257V9.67427C36 4.33132 31.6687 0 26.3257 0Z" fill="#F5F6F8"/>
<path d="M5.05689 17.4799V11.5505C5.05689 11.4568 5.09382 11.3669 5.15968 11.3003C5.22554 11.2336 5.31501 11.1957 5.40869 11.1946L8.64751 11.1465C8.69472 11.1459 8.74158 11.1547 8.78537 11.1723C8.82917 11.1899 8.86902 11.2161 8.90262 11.2493C8.93622 11.2824 8.9629 11.3219 8.98111 11.3655C8.99931 11.409 9.00869 11.4558 9.00868 11.503V14.4932C9.00858 14.5426 8.99809 14.5914 8.97789 14.6365C8.95768 14.6815 8.92822 14.7218 8.89142 14.7547L5.65318 17.745C5.60209 17.7918 5.53846 17.8226 5.47008 17.8338C5.4017 17.8449 5.33155 17.8359 5.26824 17.8077C5.20493 17.7796 5.1512 17.7336 5.11366 17.6754C5.07612 17.6171 5.05639 17.5492 5.05689 17.4799Z" fill="#6B64DD"/>
<path d="M18.3142 20.102C18.3417 20.1331 18.3597 20.1715 18.366 20.2126C18.3724 20.2536 18.3668 20.2957 18.3499 20.3336C18.333 20.3716 18.3056 20.404 18.2709 20.4268C18.2362 20.4497 18.1957 20.4621 18.1541 20.4625L14.5688 20.4872V29.0345C14.5688 29.269 14.4756 29.4939 14.3098 29.6597C14.144 29.8255 13.9191 29.9187 13.6846 29.9187H11.4478C11.2301 29.9187 11.0213 29.8322 10.8674 29.6783C10.7134 29.5243 10.627 29.3156 10.627 29.0978V19.8715C10.6269 19.7889 10.644 19.7072 10.6771 19.6316C10.7102 19.5559 10.7586 19.4879 10.8193 19.4318L14.1935 16.3184C14.2263 16.2885 14.2671 16.2686 14.3109 16.2614C14.3547 16.2541 14.3997 16.2598 14.4403 16.2776C14.481 16.2954 14.5156 16.3246 14.54 16.3618C14.5644 16.3989 14.5774 16.4423 14.5776 16.4867V16.9628C14.5776 17.035 14.6062 17.1042 14.6573 17.1552C14.7083 17.2062 14.7775 17.2349 14.8496 17.2349H15.5157C15.573 17.2348 15.6296 17.2467 15.682 17.2698C15.7345 17.2929 15.7814 17.3268 15.82 17.3691L18.3142 20.102Z" fill="#3C3AA4"/>
<path d="M31.6811 29.9451L28.0354 29.9052C27.9516 29.9044 27.8688 29.8862 27.7924 29.8519C27.7159 29.8176 27.6473 29.7679 27.591 29.7059L23.1261 24.7603L15.633 16.5489L14.988 15.8734C14.8939 15.7708 14.7668 15.7044 14.6288 15.6858C14.4908 15.6673 14.3507 15.6978 14.2328 15.772L14.1273 15.8512L10.6276 19.0689V19.0554L4.70573 24.5017C4.31349 24.8623 3.72013 24.7321 3.72306 24.1992L3.7002 20.3453C3.70057 20.2615 3.71826 20.1786 3.75216 20.1019C3.78606 20.0252 3.83544 19.9564 3.8972 19.8997L10.627 13.714L14.1314 10.4951L14.1367 10.4904C14.2556 10.3835 14.4118 10.3275 14.5716 10.3347C14.7314 10.3418 14.882 10.4114 14.9909 10.5285C14.9909 10.5285 23.7447 19.9143 23.7406 19.9155L32.1343 28.919C32.2157 29.0064 32.2695 29.1158 32.2894 29.2335C32.3092 29.3512 32.294 29.4722 32.2458 29.5814C32.1975 29.6906 32.1183 29.7833 32.018 29.8479C31.9176 29.9125 31.8005 29.9463 31.6811 29.9451Z" fill="#6B64DD"/>
<path d="M10.627 12.7929V6.14639C10.627 5.95979 10.7011 5.78083 10.833 5.64889C10.965 5.51694 11.1439 5.44281 11.3305 5.44281H19.8545C28.8251 5.44281 28.3995 12.9946 28.3995 12.9946C28.3995 12.9946 28.6305 17.7068 24.4219 19.6417C24.3492 19.6747 24.2681 19.6841 24.1898 19.6685C24.1115 19.653 24.0401 19.6132 23.9857 19.5549L21.8251 17.2483C21.7982 17.2201 21.7788 17.1855 21.7687 17.1478C21.7585 17.1102 21.7579 17.0705 21.7669 17.0326C21.776 16.9946 21.7943 16.9595 21.8203 16.9304C21.8464 16.9014 21.8792 16.8792 21.9159 16.8661C24.6206 15.84 24.4178 13.0239 24.4178 13.0239C24.4178 13.0239 24.7449 8.81239 19.515 8.81239H14.8332C14.7996 8.81239 14.7664 8.819 14.7354 8.83185C14.7044 8.84469 14.6762 8.86352 14.6525 8.88726C14.6287 8.911 14.6099 8.93918 14.597 8.97019C14.5842 9.00121 14.5776 9.03445 14.5776 9.06802V9.29786C14.5775 9.38507 14.5593 9.47132 14.5242 9.55115C14.4891 9.63098 14.4378 9.70266 14.3735 9.76164L10.926 12.9278C10.9007 12.9526 10.8685 12.9693 10.8336 12.9755C10.7986 12.9818 10.7626 12.9773 10.7303 12.9627C10.698 12.9482 10.6708 12.9241 10.6523 12.8938C10.6339 12.8635 10.6251 12.8283 10.627 12.7929Z" fill="#3C3AA4"/>
</svg>
