<svg width="43" height="43" viewBox="0 0 43 43" fill="none" xmlns="http://www.w3.org/2000/svg">
<path d="M31.4446 0H11.5554C5.17352 0 0 5.17352 0 11.5554V31.4446C0 37.8265 5.17352 43 11.5554 43H31.4446C37.8265 43 43 37.8265 43 31.4446V11.5554C43 5.17352 37.8265 0 31.4446 0Z" fill="#F5F6F8"/>
<path d="M6.04031 20.8788V13.7964C6.0403 13.6845 6.08442 13.5771 6.16308 13.4975C6.24174 13.418 6.34861 13.3726 6.4605 13.3713L10.3291 13.3139C10.3855 13.3131 10.4415 13.3236 10.4938 13.3447C10.5461 13.3657 10.5937 13.397 10.6338 13.4366C10.674 13.4762 10.7058 13.5234 10.7276 13.5754C10.7493 13.6275 10.7605 13.6833 10.7605 13.7397V17.3113C10.7604 17.3703 10.7479 17.4286 10.7237 17.4824C10.6996 17.5362 10.6644 17.5844 10.6204 17.6237L6.75254 21.1954C6.69152 21.2513 6.61551 21.2881 6.53383 21.3014C6.45216 21.3148 6.36837 21.304 6.29275 21.2704C6.21713 21.2367 6.15296 21.1818 6.10812 21.1122C6.06327 21.0427 6.03971 20.9616 6.04031 20.8788Z" fill="#6B64DD"/>
<path d="M21.8754 24.0107C21.9082 24.0478 21.9297 24.0937 21.9373 24.1428C21.9449 24.1918 21.9382 24.242 21.918 24.2874C21.8979 24.3328 21.8652 24.3714 21.8237 24.3987C21.7822 24.426 21.7338 24.4408 21.6842 24.4414L17.4017 24.4708V34.6801C17.4017 34.9602 17.2904 35.2288 17.0924 35.4269C16.8943 35.6249 16.6257 35.7362 16.3456 35.7362H13.6739C13.4138 35.7362 13.1644 35.6329 12.9806 35.449C12.7967 35.2652 12.6934 35.0158 12.6934 34.7557V23.7354C12.6934 23.6368 12.7138 23.5392 12.7533 23.4488C12.7928 23.3584 12.8507 23.2771 12.9231 23.2102L16.9535 19.4915C16.9926 19.4556 17.0413 19.432 17.0936 19.4233C17.146 19.4146 17.1997 19.4213 17.2483 19.4426C17.2969 19.4639 17.3382 19.4989 17.3673 19.5432C17.3964 19.5876 17.412 19.6394 17.4122 19.6925V20.2611C17.4122 20.3473 17.4464 20.43 17.5074 20.4909C17.5683 20.5518 17.651 20.5861 17.7372 20.5861H18.5327C18.6011 20.586 18.6688 20.6002 18.7314 20.6278C18.794 20.6554 18.8502 20.6958 18.8962 20.7464L21.8754 24.0107Z" fill="#3C3AA4"/>
<path d="M37.8414 35.7678L33.4868 35.7201C33.3867 35.7191 33.2879 35.6974 33.1965 35.6565C33.1052 35.6155 33.0233 35.5561 32.9559 35.482L27.6229 29.5748L18.6728 19.7667L17.9024 18.9599C17.7901 18.8373 17.6382 18.758 17.4734 18.7359C17.3085 18.7137 17.1411 18.7501 17.0004 18.8388L16.8743 18.9333L12.6941 22.7767V22.7606L5.62081 29.2659C5.1523 29.6966 4.44357 29.5412 4.44707 28.9046L4.41975 24.3013C4.4202 24.2012 4.44133 24.1022 4.48182 24.0106C4.52232 23.919 4.5813 23.8368 4.65506 23.7691L12.6934 16.3806L16.8793 12.5358L16.8856 12.5302C17.0276 12.4025 17.2142 12.3357 17.4051 12.3442C17.5959 12.3527 17.7758 12.4359 17.9059 12.5758C17.9059 12.5758 28.3618 23.7866 28.3569 23.788L38.3828 34.5422C38.4799 34.6466 38.5443 34.7772 38.5679 34.9178C38.5916 35.0584 38.5735 35.2029 38.5159 35.3333C38.4582 35.4638 38.3636 35.5744 38.2438 35.6517C38.1239 35.7289 37.984 35.7692 37.8414 35.7678Z" fill="#6B64DD"/>
<path d="M12.6934 15.2804V7.34149C12.6934 7.1186 12.7819 6.90485 12.9396 6.74724C13.0972 6.58964 13.3109 6.5011 13.5338 6.5011H23.7151C34.4301 6.5011 33.9217 15.5213 33.9217 15.5213C33.9217 15.5213 34.1976 21.1498 29.1707 23.4609C29.0839 23.5003 28.9869 23.5115 28.8935 23.493C28.8 23.4744 28.7147 23.4269 28.6496 23.3572L26.0689 20.6022C26.0368 20.5684 26.0137 20.5271 26.0015 20.4821C25.9894 20.4371 25.9887 20.3898 25.9995 20.3444C26.0103 20.2991 26.0322 20.2572 26.0633 20.2224C26.0944 20.1877 26.1336 20.1613 26.1775 20.1455C29.4081 18.92 29.1658 15.5563 29.1658 15.5563C29.1658 15.5563 29.5565 10.5259 23.3096 10.5259H17.7175C17.6774 10.5259 17.6377 10.5338 17.6007 10.5491C17.5636 10.5645 17.53 10.587 17.5016 10.6153C17.4733 10.6437 17.4508 10.6773 17.4354 10.7144C17.4201 10.7514 17.4122 10.7911 17.4122 10.8312V11.1057C17.4121 11.2099 17.3904 11.3129 17.3485 11.4083C17.3065 11.5036 17.2452 11.5892 17.1685 11.6597L13.0506 15.4415C13.0204 15.4712 12.9819 15.4911 12.9402 15.4985C12.8985 15.506 12.8555 15.5007 12.8168 15.4832C12.7782 15.4658 12.7457 15.4371 12.7237 15.4009C12.7017 15.3647 12.6911 15.3227 12.6934 15.2804Z" fill="#3C3AA4"/>
</svg>
