<svg width="30" height="30" viewBox="0 0 30 30" fill="none" xmlns="http://www.w3.org/2000/svg">
<circle cx="15" cy="15" r="15" fill="#FAFAFA"/>
<path d="M20.3334 21V19.6667C20.3334 18.9594 20.0524 18.2811 19.5523 17.781C19.0522 17.281 18.3739 17 17.6667 17H12.3334C11.6261 17 10.9478 17.281 10.4477 17.781C9.94764 18.2811 9.66669 18.9594 9.66669 19.6667V21" stroke="#7165E3" stroke-width="2" stroke-linecap="round" stroke-linejoin="round"/>
<path d="M15 14.3333C16.4727 14.3333 17.6666 13.1394 17.6666 11.6667C17.6666 10.1939 16.4727 9 15 9C13.5272 9 12.3333 10.1939 12.3333 11.6667C12.3333 13.1394 13.5272 14.3333 15 14.3333Z" stroke="#7165E3" stroke-width="2" stroke-linecap="round" stroke-linejoin="round"/>
</svg>
