<svg width="56" height="56" viewBox="0 0 56 56" fill="none" xmlns="http://www.w3.org/2000/svg">
<circle cx="28" cy="28" r="26.5" fill="url(#paint0_linear_484_519)" stroke="#7165E3" stroke-width="3"/>
<path d="M11.68 20.2H19.624C21.464 20.2 23.096 20.544 24.52 21.232C25.944 21.92 27.048 22.896 27.832 24.16C28.616 25.424 29.008 26.904 29.008 28.6C29.008 30.296 28.616 31.776 27.832 33.04C27.048 34.304 25.944 35.28 24.52 35.968C23.096 36.656 21.464 37 19.624 37H11.68V20.2ZM19.432 33.208C20.872 33.208 22.024 32.8 22.888 31.984C23.768 31.168 24.208 30.04 24.208 28.6C24.208 27.16 23.768 26.032 22.888 25.216C22.024 24.4 20.872 23.992 19.432 23.992H16.432V33.208H19.432ZM31.5081 20.2H36.2601V33.232H44.2761V37H31.5081V20.2Z" fill="#7165E3"/>
<defs>
<linearGradient id="paint0_linear_484_519" x1="42.0411" y1="48.0342" x2="-8.64383" y2="-17.7192" gradientUnits="userSpaceOnUse">
<stop stop-color="#DCD5FF"/>
<stop offset="1" stop-color="#EDE9FF" stop-opacity="0"/>
</linearGradient>
</defs>
</svg>
