<svg width="36" height="35" viewBox="0 0 36 35" fill="none" xmlns="http://www.w3.org/2000/svg">
<path d="M30.2141 7.79817L30.2146 7.79866C30.8398 8.40622 31.3335 9.12528 31.6695 9.91363L33.0494 9.32553L31.6695 9.91363C32.0054 10.7019 32.1777 11.5452 32.1777 12.3958C32.1777 13.2465 32.0054 14.0898 31.6695 14.878L33.0494 15.4662L31.6695 14.8781C31.3335 15.6664 30.8398 16.3855 30.2146 16.993L30.2144 16.9933L28.6244 18.5391L18 28.8684L7.37561 18.5391L5.78561 16.9933C4.52385 15.7666 3.82306 14.1119 3.82306 12.3958C3.82306 10.6798 4.52385 9.02513 5.78561 7.79842C7.04881 6.57031 8.77085 5.87312 10.575 5.87312C12.3791 5.87312 14.1012 6.57031 15.3644 7.79842L16.41 6.72292L15.3644 7.79842L16.9544 9.34425C17.5366 9.91026 18.4634 9.91026 19.0456 9.34425L20.6356 7.79842L20.6359 7.79817C21.2609 7.19025 22.0052 6.70583 22.8275 6.3746C23.6498 6.04335 24.5325 5.87234 25.425 5.87234C26.3175 5.87234 27.2002 6.04335 28.0225 6.3746C28.8448 6.70583 29.5891 7.19025 30.2141 7.79817Z" fill="#FAFAFA" stroke="#7165E3" stroke-width="3" stroke-linecap="round" stroke-linejoin="round"/>
</svg>
