<svg width="64" height="64" viewBox="0 0 64 64" fill="none" xmlns="http://www.w3.org/2000/svg">
<g filter="url(#filter0_d_110_153)">
<path d="M44.9511 2H19.0489C10.7376 2 4 8.7376 4 17.0489V42.9511C4 51.2624 10.7376 58 19.0489 58H44.9511C53.2624 58 60 51.2624 60 42.9511V17.0489C60 8.7376 53.2624 2 44.9511 2Z" fill="#F5F6F8"/>
<path d="M11.8665 29.191V19.9674C11.8665 19.8217 11.9239 19.6819 12.0264 19.5782C12.1288 19.4746 12.268 19.4155 12.4137 19.4138L17.4519 19.339C17.5253 19.3381 17.5982 19.3517 17.6663 19.3791C17.7344 19.4066 17.7964 19.4473 17.8487 19.4989C17.901 19.5504 17.9425 19.6119 17.9708 19.6797C17.9991 19.7474 18.0137 19.8201 18.0137 19.8936V24.545C18.0135 24.6218 17.9972 24.6978 17.9658 24.7678C17.9344 24.8379 17.8885 24.9006 17.8313 24.9518L12.794 29.6033C12.7146 29.6761 12.6156 29.7241 12.5092 29.7415C12.4028 29.7588 12.2937 29.7447 12.1952 29.701C12.0967 29.6572 12.0132 29.5856 11.9548 29.495C11.8964 29.4045 11.8657 29.2988 11.8665 29.191Z" fill="#6B64DD"/>
<path d="M32.4889 33.2697C32.5317 33.3181 32.5597 33.3779 32.5695 33.4418C32.5794 33.5056 32.5707 33.571 32.5444 33.6301C32.5182 33.6892 32.4756 33.7395 32.4216 33.775C32.3676 33.8106 32.3045 33.8299 32.2399 33.8306L26.6627 33.8689V47.1648C26.6627 47.5296 26.5178 47.8794 26.2598 48.1373C26.0019 48.3953 25.6521 48.5402 25.2873 48.5402H21.8078C21.4692 48.5402 21.1444 48.4057 20.9049 48.1662C20.6655 47.9267 20.5309 47.602 20.5309 47.2633V32.9113C20.5309 32.7828 20.5575 32.6557 20.609 32.538C20.6605 32.4202 20.7357 32.3144 20.8301 32.2272L26.079 27.3842C26.1299 27.3376 26.1933 27.3068 26.2615 27.2955C26.3296 27.2842 26.3996 27.2929 26.4629 27.3207C26.5261 27.3484 26.58 27.3939 26.6179 27.4516C26.6558 27.5094 26.6761 27.5769 26.6764 27.646V28.3866C26.6764 28.4988 26.7209 28.6065 26.8003 28.6858C26.8797 28.7652 26.9873 28.8098 27.0995 28.8098H28.1356C28.2247 28.8096 28.3129 28.8281 28.3944 28.8641C28.4759 28.9001 28.549 28.9527 28.609 29.0186L32.4889 33.2697Z" fill="#3C3AA4"/>
<path d="M53.2819 48.5812L47.6107 48.5192C47.4803 48.5179 47.3517 48.4896 47.2327 48.4363C47.1137 48.3829 47.0071 48.3056 46.9194 48.2091L39.9741 40.516L28.3181 27.7427L27.3148 26.692C27.1685 26.5323 26.9707 26.429 26.756 26.4002C26.5414 26.3713 26.3234 26.4188 26.1401 26.5342L25.9759 26.6573L20.5319 31.6627V31.6417L11.3202 40.1138C10.71 40.6747 9.78699 40.4722 9.79155 39.6431L9.75598 33.6482C9.75656 33.5178 9.78408 33.3889 9.83682 33.2696C9.88955 33.1504 9.96636 33.0433 10.0624 32.9551L20.531 23.3329L25.9823 18.3257L25.9905 18.3184C26.1755 18.152 26.4185 18.065 26.6671 18.0761C26.9157 18.0872 27.1499 18.1955 27.3194 18.3777C27.3194 18.3777 40.9363 32.9779 40.9299 32.9797L53.9869 46.9852C54.1134 47.1211 54.1972 47.2912 54.228 47.4743C54.2588 47.6575 54.2352 47.8456 54.1602 48.0155C54.0852 48.1854 53.962 48.3295 53.8059 48.4301C53.6497 48.5306 53.4675 48.5832 53.2819 48.5812Z" fill="#6B64DD"/>
<path d="M20.5309 21.9001V11.561C20.5309 11.2708 20.6462 10.9924 20.8515 10.7871C21.0567 10.5819 21.3351 10.4666 21.6254 10.4666H34.8848C48.8392 10.4666 48.177 22.2138 48.177 22.2138C48.177 22.2138 48.5364 29.544 41.9897 32.5537C41.8767 32.6051 41.7504 32.6197 41.6287 32.5955C41.5069 32.5713 41.3958 32.5095 41.3111 32.4188L37.9502 28.8307C37.9084 28.7867 37.8782 28.733 37.8624 28.6744C37.8467 28.6158 37.8457 28.5542 37.8598 28.4951C37.8738 28.4361 37.9024 28.3815 37.9428 28.3362C37.9833 28.291 38.0344 28.2566 38.0916 28.2361C42.2989 26.64 41.9833 22.2594 41.9833 22.2594C41.9833 22.2594 42.4922 15.7081 34.3567 15.7081H27.074C27.0218 15.7081 26.97 15.7184 26.9218 15.7384C26.8736 15.7584 26.8297 15.7877 26.7928 15.8246C26.7559 15.8615 26.7266 15.9054 26.7066 15.9536C26.6866 16.0019 26.6763 16.0536 26.6763 16.1058V16.4633C26.6762 16.599 26.6479 16.7332 26.5933 16.8573C26.5387 16.9815 26.4589 17.093 26.3589 17.1848L20.9961 22.1098C20.9567 22.1485 20.9066 22.1745 20.8523 22.1842C20.798 22.1939 20.742 22.1869 20.6916 22.1643C20.6413 22.1416 20.5991 22.1042 20.5704 22.057C20.5417 22.0099 20.5279 21.9552 20.5309 21.9001Z" fill="#3C3AA4"/>
</g>
<defs>
<filter id="filter0_d_110_153" x="0" y="0" width="64" height="64" filterUnits="userSpaceOnUse" color-interpolation-filters="sRGB">
<feFlood flood-opacity="0" result="BackgroundImageFix"/>
<feColorMatrix in="SourceAlpha" type="matrix" values="0 0 0 0 0 0 0 0 0 0 0 0 0 0 0 0 0 0 127 0" result="hardAlpha"/>
<feOffset dy="2"/>
<feGaussianBlur stdDeviation="2"/>
<feComposite in2="hardAlpha" operator="out"/>
<feColorMatrix type="matrix" values="0 0 0 0 0 0 0 0 0 0 0 0 0 0 0 0 0 0 0.2 0"/>
<feBlend mode="normal" in2="BackgroundImageFix" result="effect1_dropShadow_110_153"/>
<feBlend mode="normal" in="SourceGraphic" in2="effect1_dropShadow_110_153" result="shape"/>
</filter>
</defs>
</svg>
