<svg width="16" height="16" viewBox="0 0 16 16" fill="none" xmlns="http://www.w3.org/2000/svg">
<path d="M11.752 4.24795C11.2829 3.77883 10.6845 3.46037 10.0333 3.33332L11.35 4.64999L12.6666 5.96666C12.5396 5.3155 12.2211 4.71707 11.752 4.24795Z" stroke="#7165E3" stroke-linecap="round" stroke-linejoin="round"/>
<path d="M13.6108 2.38466C12.6477 1.42277 11.3862 0.816947 10.0333 0.666656L15.3333 5.95999C15.1813 4.60733 14.5739 3.34655 13.6108 2.38466Z" stroke="#7165E3" stroke-linecap="round" stroke-linejoin="round"/>
<path d="M14.6666 13.28V11.28C14.6748 10.953 14.5624 10.6345 14.351 10.385C14.1396 10.1355 13.8438 9.97234 13.52 9.92666C12.8799 9.84224 12.2515 9.68569 11.6466 9.45999C11.408 9.37029 11.1487 9.35088 10.8994 9.40405C10.6501 9.45722 10.4212 9.58075 10.24 9.75999L9.39331 10.6067C7.72428 9.65762 6.34235 8.27569 5.39331 6.60666L6.23998 5.75999C6.41922 5.57873 6.54274 5.34989 6.59591 5.10058C6.64908 4.85127 6.62967 4.59194 6.53998 4.35332C6.31428 3.74847 6.15772 3.12003 6.07331 2.47999C6.02803 2.15962 5.8678 1.86665 5.62248 1.65568C5.37717 1.44471 5.06351 1.33014 4.73998 1.33332H2.73998C2.55487 1.3335 2.37183 1.37221 2.2025 1.447C2.03318 1.5218 1.88128 1.63103 1.75649 1.76774C1.63169 1.90445 1.53673 2.06565 1.47764 2.24107C1.41856 2.4165 1.39665 2.6023 1.41331 2.78666C1.63214 4.84732 2.33329 6.82746 3.45998 8.56666C4.48353 10.1774 5.84919 11.5431 7.45998 12.5667C9.19131 13.6894 11.1619 14.3904 13.2133 14.6133C13.3982 14.63 13.5846 14.6079 13.7605 14.5485C13.9364 14.489 14.0979 14.3934 14.2347 14.2679C14.3715 14.1424 14.4806 13.9897 14.555 13.8196C14.6294 13.6494 14.6674 13.4657 14.6666 13.28Z" stroke="#7165E3" stroke-linecap="round" stroke-linejoin="round"/>
</svg>
