<svg width="32" height="33" viewBox="0 0 32 33" fill="none" xmlns="http://www.w3.org/2000/svg">
<path d="M24 11.3499C26.2091 11.3499 28 9.55904 28 7.3499C28 5.14076 26.2091 3.3499 24 3.3499C21.7909 3.3499 20 5.14076 20 7.3499C20 9.55904 21.7909 11.3499 24 11.3499Z" stroke="#7165E3" stroke-width="2" stroke-linecap="round" stroke-linejoin="round"/>
<path d="M8 20.6832C10.2091 20.6832 12 18.8924 12 16.6832C12 14.4741 10.2091 12.6832 8 12.6832C5.79086 12.6832 4 14.4741 4 16.6832C4 18.8924 5.79086 20.6832 8 20.6832Z" stroke="#7165E3" stroke-width="2" stroke-linecap="round" stroke-linejoin="round"/>
<path d="M24 30.0166C26.2091 30.0166 28 28.2257 28 26.0166C28 23.8074 26.2091 22.0166 24 22.0166C21.7909 22.0166 20 23.8074 20 26.0166C20 28.2257 21.7909 30.0166 24 30.0166Z" stroke="#7165E3" stroke-width="2" stroke-linecap="round" stroke-linejoin="round"/>
<path d="M11.4531 18.6966L20.5598 24.0032" stroke="#7165E3" stroke-width="2" stroke-linecap="round" stroke-linejoin="round"/>
<path d="M20.5465 9.36323L11.4531 14.6699" stroke="#7165E3" stroke-width="2" stroke-linecap="round" stroke-linejoin="round"/>
</svg>
